<mxfile host="Electron" modified="2024-05-06T16:30:22.808Z" agent="Mozilla/5.0 (Macintosh; Intel Mac OS X 10_15_7) AppleWebKit/537.36 (KHTML, like Gecko) draw.io/24.1.0 Chrome/120.0.6099.109 Electron/28.1.0 Safari/537.36" etag="MlD6A-pSabWHgEHm78vN" version="24.1.0" type="device">
  <diagram name="Page-1" id="9uELqQ_YkIboGEW4-qQR">
    <mxGraphModel dx="3324" dy="2934" grid="1" gridSize="10" guides="1" tooltips="1" connect="1" arrows="1" fold="1" page="1" pageScale="1" pageWidth="850" pageHeight="1100" math="0" shadow="0">
      <root>
        <mxCell id="0" />
        <mxCell id="1" parent="0" />
        <mxCell id="YLrN16T87f73P50CtAJ6-1" value="Forwarder" style="rounded=0;whiteSpace=wrap;html=1;" parent="1" vertex="1">
          <mxGeometry x="330" y="-10" width="120" height="60" as="geometry" />
        </mxCell>
        <mxCell id="YLrN16T87f73P50CtAJ6-2" value="flushErc20" style="rounded=0;whiteSpace=wrap;html=1;" parent="1" vertex="1">
          <mxGeometry x="450" y="110" width="120" height="30" as="geometry" />
        </mxCell>
        <mxCell id="YLrN16T87f73P50CtAJ6-3" value="flushNative" style="rounded=0;whiteSpace=wrap;html=1;" parent="1" vertex="1">
          <mxGeometry x="450" y="80" width="120" height="30" as="geometry" />
        </mxCell>
        <mxCell id="YLrN16T87f73P50CtAJ6-5" value="callable by anyone" style="rounded=0;whiteSpace=wrap;html=1;" parent="1" vertex="1">
          <mxGeometry x="570" y="80" width="120" height="60" as="geometry" />
        </mxCell>
        <mxCell id="YLrN16T87f73P50CtAJ6-13" style="edgeStyle=orthogonalEdgeStyle;rounded=0;orthogonalLoop=1;jettySize=auto;html=1;entryX=0.5;entryY=1;entryDx=0;entryDy=0;" parent="1" source="YLrN16T87f73P50CtAJ6-6" target="YLrN16T87f73P50CtAJ6-9" edge="1">
          <mxGeometry relative="1" as="geometry" />
        </mxCell>
        <mxCell id="YLrN16T87f73P50CtAJ6-14" style="edgeStyle=orthogonalEdgeStyle;rounded=0;orthogonalLoop=1;jettySize=auto;html=1;" parent="1" source="YLrN16T87f73P50CtAJ6-6" target="YLrN16T87f73P50CtAJ6-10" edge="1">
          <mxGeometry relative="1" as="geometry" />
        </mxCell>
        <mxCell id="YLrN16T87f73P50CtAJ6-6" value="POST /payment" style="rounded=0;whiteSpace=wrap;html=1;" parent="1" vertex="1">
          <mxGeometry x="340" y="530" width="130" height="60" as="geometry" />
        </mxCell>
        <mxCell id="YLrN16T87f73P50CtAJ6-12" style="edgeStyle=orthogonalEdgeStyle;rounded=0;orthogonalLoop=1;jettySize=auto;html=1;entryX=0;entryY=0.5;entryDx=0;entryDy=0;" parent="1" source="YLrN16T87f73P50CtAJ6-7" target="YLrN16T87f73P50CtAJ6-6" edge="1">
          <mxGeometry relative="1" as="geometry">
            <Array as="points">
              <mxPoint x="250" y="560" />
            </Array>
          </mxGeometry>
        </mxCell>
        <mxCell id="YLrN16T87f73P50CtAJ6-7" value="click on buy" style="rounded=0;whiteSpace=wrap;html=1;" parent="1" vertex="1">
          <mxGeometry x="200" y="420" width="120" height="60" as="geometry" />
        </mxCell>
        <mxCell id="YLrN16T87f73P50CtAJ6-8" value="Use CREATE2 to deterministically set the forwarder address&lt;br&gt;Store salt and address" style="rounded=0;whiteSpace=wrap;html=1;" parent="1" vertex="1">
          <mxGeometry x="340" y="590" width="130" height="90" as="geometry" />
        </mxCell>
        <mxCell id="YLrN16T87f73P50CtAJ6-9" value="address" style="rounded=0;whiteSpace=wrap;html=1;" parent="1" vertex="1">
          <mxGeometry x="510" y="420" width="130" height="60" as="geometry" />
        </mxCell>
        <mxCell id="YLrN16T87f73P50CtAJ6-15" style="edgeStyle=orthogonalEdgeStyle;rounded=0;orthogonalLoop=1;jettySize=auto;html=1;entryX=0;entryY=0.5;entryDx=0;entryDy=0;" parent="1" source="YLrN16T87f73P50CtAJ6-10" target="YLrN16T87f73P50CtAJ6-11" edge="1">
          <mxGeometry relative="1" as="geometry" />
        </mxCell>
        <mxCell id="YLrN16T87f73P50CtAJ6-20" style="edgeStyle=orthogonalEdgeStyle;rounded=0;orthogonalLoop=1;jettySize=auto;html=1;entryX=0.5;entryY=0;entryDx=0;entryDy=0;" parent="1" source="YLrN16T87f73P50CtAJ6-10" target="YLrN16T87f73P50CtAJ6-19" edge="1">
          <mxGeometry relative="1" as="geometry" />
        </mxCell>
        <mxCell id="YLrN16T87f73P50CtAJ6-10" value="poll adress for expcted funds" style="rounded=0;whiteSpace=wrap;html=1;" parent="1" vertex="1">
          <mxGeometry x="680" y="530" width="130" height="60" as="geometry" />
        </mxCell>
        <mxCell id="YLrN16T87f73P50CtAJ6-17" style="edgeStyle=orthogonalEdgeStyle;rounded=0;orthogonalLoop=1;jettySize=auto;html=1;entryX=0;entryY=0.5;entryDx=0;entryDy=0;" parent="1" source="YLrN16T87f73P50CtAJ6-11" target="YLrN16T87f73P50CtAJ6-16" edge="1">
          <mxGeometry relative="1" as="geometry" />
        </mxCell>
        <mxCell id="YLrN16T87f73P50CtAJ6-11" value="deploy and flush tokens" style="rounded=0;whiteSpace=wrap;html=1;" parent="1" vertex="1">
          <mxGeometry x="840" y="530" width="130" height="60" as="geometry" />
        </mxCell>
        <mxCell id="YLrN16T87f73P50CtAJ6-16" value="webhook" style="rounded=0;whiteSpace=wrap;html=1;" parent="1" vertex="1">
          <mxGeometry x="990" y="530" width="130" height="60" as="geometry" />
        </mxCell>
        <mxCell id="YLrN16T87f73P50CtAJ6-18" value="Forwarder clone factory for cheap deployments" style="rounded=0;whiteSpace=wrap;html=1;fillColor=#dae8fc;strokeColor=#6c8ebf;" parent="1" vertex="1">
          <mxGeometry x="200" y="-10" width="120" height="160" as="geometry" />
        </mxCell>
        <mxCell id="YLrN16T87f73P50CtAJ6-19" value="queue or cronjob" style="rounded=0;whiteSpace=wrap;html=1;" parent="1" vertex="1">
          <mxGeometry x="680" y="640" width="130" height="60" as="geometry" />
        </mxCell>
        <mxCell id="YLrN16T87f73P50CtAJ6-23" value="Postgress db" style="shape=table;startSize=30;container=1;collapsible=1;childLayout=tableLayout;fixedRows=1;rowLines=0;fontStyle=1;align=center;resizeLast=1;html=1;" parent="1" vertex="1">
          <mxGeometry x="300" y="830" width="930" height="150" as="geometry">
            <mxRectangle x="660" y="810" width="70" height="30" as="alternateBounds" />
          </mxGeometry>
        </mxCell>
        <mxCell id="YLrN16T87f73P50CtAJ6-24" value="" style="shape=tableRow;horizontal=0;startSize=0;swimlaneHead=0;swimlaneBody=0;fillColor=none;collapsible=0;dropTarget=0;points=[[0,0.5],[1,0.5]];portConstraint=eastwest;top=0;left=0;right=0;bottom=1;" parent="YLrN16T87f73P50CtAJ6-23" vertex="1">
          <mxGeometry y="30" width="930" height="30" as="geometry" />
        </mxCell>
        <mxCell id="YLrN16T87f73P50CtAJ6-25" value="PK" style="shape=partialRectangle;connectable=0;fillColor=none;top=0;left=0;bottom=0;right=0;fontStyle=1;overflow=hidden;whiteSpace=wrap;html=1;" parent="YLrN16T87f73P50CtAJ6-24" vertex="1">
          <mxGeometry width="30" height="30" as="geometry">
            <mxRectangle width="30" height="30" as="alternateBounds" />
          </mxGeometry>
        </mxCell>
        <mxCell id="YLrN16T87f73P50CtAJ6-26" value="contract address" style="shape=partialRectangle;connectable=0;fillColor=none;top=0;left=0;bottom=0;right=0;align=left;spacingLeft=6;fontStyle=5;overflow=hidden;whiteSpace=wrap;html=1;" parent="YLrN16T87f73P50CtAJ6-24" vertex="1">
          <mxGeometry x="30" width="150" height="30" as="geometry">
            <mxRectangle width="150" height="30" as="alternateBounds" />
          </mxGeometry>
        </mxCell>
        <mxCell id="YLrN16T87f73P50CtAJ6-36" value="amount" style="shape=partialRectangle;connectable=0;fillColor=none;top=0;left=0;bottom=0;right=0;align=left;spacingLeft=6;fontStyle=5;overflow=hidden;whiteSpace=wrap;html=1;" parent="YLrN16T87f73P50CtAJ6-24" vertex="1">
          <mxGeometry x="180" width="70" height="30" as="geometry">
            <mxRectangle width="70" height="30" as="alternateBounds" />
          </mxGeometry>
        </mxCell>
        <mxCell id="YLrN16T87f73P50CtAJ6-40" value="chain" style="shape=partialRectangle;connectable=0;fillColor=none;top=0;left=0;bottom=0;right=0;align=left;spacingLeft=6;fontStyle=5;overflow=hidden;whiteSpace=wrap;html=1;" parent="YLrN16T87f73P50CtAJ6-24" vertex="1">
          <mxGeometry x="250" width="230" height="30" as="geometry">
            <mxRectangle width="230" height="30" as="alternateBounds" />
          </mxGeometry>
        </mxCell>
        <mxCell id="YLrN16T87f73P50CtAJ6-48" value="token" style="shape=partialRectangle;connectable=0;fillColor=none;top=0;left=0;bottom=0;right=0;align=left;spacingLeft=6;fontStyle=5;overflow=hidden;whiteSpace=wrap;html=1;" parent="YLrN16T87f73P50CtAJ6-24" vertex="1">
          <mxGeometry x="480" width="150" height="30" as="geometry">
            <mxRectangle width="150" height="30" as="alternateBounds" />
          </mxGeometry>
        </mxCell>
        <mxCell id="YLrN16T87f73P50CtAJ6-52" value="status" style="shape=partialRectangle;connectable=0;fillColor=none;top=0;left=0;bottom=0;right=0;align=left;spacingLeft=6;fontStyle=5;overflow=hidden;whiteSpace=wrap;html=1;" parent="YLrN16T87f73P50CtAJ6-24" vertex="1">
          <mxGeometry x="630" width="150" height="30" as="geometry">
            <mxRectangle width="150" height="30" as="alternateBounds" />
          </mxGeometry>
        </mxCell>
        <mxCell id="YLrN16T87f73P50CtAJ6-56" value="expires" style="shape=partialRectangle;connectable=0;fillColor=none;top=0;left=0;bottom=0;right=0;align=left;spacingLeft=6;fontStyle=5;overflow=hidden;whiteSpace=wrap;html=1;" parent="YLrN16T87f73P50CtAJ6-24" vertex="1">
          <mxGeometry x="780" width="150" height="30" as="geometry">
            <mxRectangle width="150" height="30" as="alternateBounds" />
          </mxGeometry>
        </mxCell>
        <mxCell id="YLrN16T87f73P50CtAJ6-27" value="" style="shape=tableRow;horizontal=0;startSize=0;swimlaneHead=0;swimlaneBody=0;fillColor=none;collapsible=0;dropTarget=0;points=[[0,0.5],[1,0.5]];portConstraint=eastwest;top=0;left=0;right=0;bottom=0;" parent="YLrN16T87f73P50CtAJ6-23" vertex="1">
          <mxGeometry y="60" width="930" height="30" as="geometry" />
        </mxCell>
        <mxCell id="YLrN16T87f73P50CtAJ6-28" value="" style="shape=partialRectangle;connectable=0;fillColor=none;top=0;left=0;bottom=0;right=0;editable=1;overflow=hidden;whiteSpace=wrap;html=1;" parent="YLrN16T87f73P50CtAJ6-27" vertex="1">
          <mxGeometry width="30" height="30" as="geometry">
            <mxRectangle width="30" height="30" as="alternateBounds" />
          </mxGeometry>
        </mxCell>
        <mxCell id="YLrN16T87f73P50CtAJ6-29" value="Row 1" style="shape=partialRectangle;connectable=0;fillColor=none;top=0;left=0;bottom=0;right=0;align=left;spacingLeft=6;overflow=hidden;whiteSpace=wrap;html=1;" parent="YLrN16T87f73P50CtAJ6-27" vertex="1">
          <mxGeometry x="30" width="150" height="30" as="geometry">
            <mxRectangle width="150" height="30" as="alternateBounds" />
          </mxGeometry>
        </mxCell>
        <mxCell id="YLrN16T87f73P50CtAJ6-37" style="shape=partialRectangle;connectable=0;fillColor=none;top=0;left=0;bottom=0;right=0;align=left;spacingLeft=6;overflow=hidden;whiteSpace=wrap;html=1;" parent="YLrN16T87f73P50CtAJ6-27" vertex="1">
          <mxGeometry x="180" width="70" height="30" as="geometry">
            <mxRectangle width="70" height="30" as="alternateBounds" />
          </mxGeometry>
        </mxCell>
        <mxCell id="YLrN16T87f73P50CtAJ6-41" style="shape=partialRectangle;connectable=0;fillColor=none;top=0;left=0;bottom=0;right=0;align=left;spacingLeft=6;overflow=hidden;whiteSpace=wrap;html=1;" parent="YLrN16T87f73P50CtAJ6-27" vertex="1">
          <mxGeometry x="250" width="230" height="30" as="geometry">
            <mxRectangle width="230" height="30" as="alternateBounds" />
          </mxGeometry>
        </mxCell>
        <mxCell id="YLrN16T87f73P50CtAJ6-49" style="shape=partialRectangle;connectable=0;fillColor=none;top=0;left=0;bottom=0;right=0;align=left;spacingLeft=6;overflow=hidden;whiteSpace=wrap;html=1;" parent="YLrN16T87f73P50CtAJ6-27" vertex="1">
          <mxGeometry x="480" width="150" height="30" as="geometry">
            <mxRectangle width="150" height="30" as="alternateBounds" />
          </mxGeometry>
        </mxCell>
        <mxCell id="YLrN16T87f73P50CtAJ6-53" style="shape=partialRectangle;connectable=0;fillColor=none;top=0;left=0;bottom=0;right=0;align=left;spacingLeft=6;overflow=hidden;whiteSpace=wrap;html=1;" parent="YLrN16T87f73P50CtAJ6-27" vertex="1">
          <mxGeometry x="630" width="150" height="30" as="geometry">
            <mxRectangle width="150" height="30" as="alternateBounds" />
          </mxGeometry>
        </mxCell>
        <mxCell id="YLrN16T87f73P50CtAJ6-57" style="shape=partialRectangle;connectable=0;fillColor=none;top=0;left=0;bottom=0;right=0;align=left;spacingLeft=6;overflow=hidden;whiteSpace=wrap;html=1;" parent="YLrN16T87f73P50CtAJ6-27" vertex="1">
          <mxGeometry x="780" width="150" height="30" as="geometry">
            <mxRectangle width="150" height="30" as="alternateBounds" />
          </mxGeometry>
        </mxCell>
        <mxCell id="YLrN16T87f73P50CtAJ6-30" value="" style="shape=tableRow;horizontal=0;startSize=0;swimlaneHead=0;swimlaneBody=0;fillColor=none;collapsible=0;dropTarget=0;points=[[0,0.5],[1,0.5]];portConstraint=eastwest;top=0;left=0;right=0;bottom=0;" parent="YLrN16T87f73P50CtAJ6-23" vertex="1">
          <mxGeometry y="90" width="930" height="30" as="geometry" />
        </mxCell>
        <mxCell id="YLrN16T87f73P50CtAJ6-31" value="" style="shape=partialRectangle;connectable=0;fillColor=none;top=0;left=0;bottom=0;right=0;editable=1;overflow=hidden;whiteSpace=wrap;html=1;" parent="YLrN16T87f73P50CtAJ6-30" vertex="1">
          <mxGeometry width="30" height="30" as="geometry">
            <mxRectangle width="30" height="30" as="alternateBounds" />
          </mxGeometry>
        </mxCell>
        <mxCell id="YLrN16T87f73P50CtAJ6-32" value="Row 2" style="shape=partialRectangle;connectable=0;fillColor=none;top=0;left=0;bottom=0;right=0;align=left;spacingLeft=6;overflow=hidden;whiteSpace=wrap;html=1;" parent="YLrN16T87f73P50CtAJ6-30" vertex="1">
          <mxGeometry x="30" width="150" height="30" as="geometry">
            <mxRectangle width="150" height="30" as="alternateBounds" />
          </mxGeometry>
        </mxCell>
        <mxCell id="YLrN16T87f73P50CtAJ6-38" style="shape=partialRectangle;connectable=0;fillColor=none;top=0;left=0;bottom=0;right=0;align=left;spacingLeft=6;overflow=hidden;whiteSpace=wrap;html=1;" parent="YLrN16T87f73P50CtAJ6-30" vertex="1">
          <mxGeometry x="180" width="70" height="30" as="geometry">
            <mxRectangle width="70" height="30" as="alternateBounds" />
          </mxGeometry>
        </mxCell>
        <mxCell id="YLrN16T87f73P50CtAJ6-42" style="shape=partialRectangle;connectable=0;fillColor=none;top=0;left=0;bottom=0;right=0;align=left;spacingLeft=6;overflow=hidden;whiteSpace=wrap;html=1;" parent="YLrN16T87f73P50CtAJ6-30" vertex="1">
          <mxGeometry x="250" width="230" height="30" as="geometry">
            <mxRectangle width="230" height="30" as="alternateBounds" />
          </mxGeometry>
        </mxCell>
        <mxCell id="YLrN16T87f73P50CtAJ6-50" style="shape=partialRectangle;connectable=0;fillColor=none;top=0;left=0;bottom=0;right=0;align=left;spacingLeft=6;overflow=hidden;whiteSpace=wrap;html=1;" parent="YLrN16T87f73P50CtAJ6-30" vertex="1">
          <mxGeometry x="480" width="150" height="30" as="geometry">
            <mxRectangle width="150" height="30" as="alternateBounds" />
          </mxGeometry>
        </mxCell>
        <mxCell id="YLrN16T87f73P50CtAJ6-54" style="shape=partialRectangle;connectable=0;fillColor=none;top=0;left=0;bottom=0;right=0;align=left;spacingLeft=6;overflow=hidden;whiteSpace=wrap;html=1;" parent="YLrN16T87f73P50CtAJ6-30" vertex="1">
          <mxGeometry x="630" width="150" height="30" as="geometry">
            <mxRectangle width="150" height="30" as="alternateBounds" />
          </mxGeometry>
        </mxCell>
        <mxCell id="YLrN16T87f73P50CtAJ6-58" style="shape=partialRectangle;connectable=0;fillColor=none;top=0;left=0;bottom=0;right=0;align=left;spacingLeft=6;overflow=hidden;whiteSpace=wrap;html=1;" parent="YLrN16T87f73P50CtAJ6-30" vertex="1">
          <mxGeometry x="780" width="150" height="30" as="geometry">
            <mxRectangle width="150" height="30" as="alternateBounds" />
          </mxGeometry>
        </mxCell>
        <mxCell id="YLrN16T87f73P50CtAJ6-33" value="" style="shape=tableRow;horizontal=0;startSize=0;swimlaneHead=0;swimlaneBody=0;fillColor=none;collapsible=0;dropTarget=0;points=[[0,0.5],[1,0.5]];portConstraint=eastwest;top=0;left=0;right=0;bottom=0;" parent="YLrN16T87f73P50CtAJ6-23" vertex="1">
          <mxGeometry y="120" width="930" height="30" as="geometry" />
        </mxCell>
        <mxCell id="YLrN16T87f73P50CtAJ6-34" value="" style="shape=partialRectangle;connectable=0;fillColor=none;top=0;left=0;bottom=0;right=0;editable=1;overflow=hidden;whiteSpace=wrap;html=1;" parent="YLrN16T87f73P50CtAJ6-33" vertex="1">
          <mxGeometry width="30" height="30" as="geometry">
            <mxRectangle width="30" height="30" as="alternateBounds" />
          </mxGeometry>
        </mxCell>
        <mxCell id="YLrN16T87f73P50CtAJ6-35" value="Row 3" style="shape=partialRectangle;connectable=0;fillColor=none;top=0;left=0;bottom=0;right=0;align=left;spacingLeft=6;overflow=hidden;whiteSpace=wrap;html=1;" parent="YLrN16T87f73P50CtAJ6-33" vertex="1">
          <mxGeometry x="30" width="150" height="30" as="geometry">
            <mxRectangle width="150" height="30" as="alternateBounds" />
          </mxGeometry>
        </mxCell>
        <mxCell id="YLrN16T87f73P50CtAJ6-39" style="shape=partialRectangle;connectable=0;fillColor=none;top=0;left=0;bottom=0;right=0;align=left;spacingLeft=6;overflow=hidden;whiteSpace=wrap;html=1;" parent="YLrN16T87f73P50CtAJ6-33" vertex="1">
          <mxGeometry x="180" width="70" height="30" as="geometry">
            <mxRectangle width="70" height="30" as="alternateBounds" />
          </mxGeometry>
        </mxCell>
        <mxCell id="YLrN16T87f73P50CtAJ6-43" style="shape=partialRectangle;connectable=0;fillColor=none;top=0;left=0;bottom=0;right=0;align=left;spacingLeft=6;overflow=hidden;whiteSpace=wrap;html=1;" parent="YLrN16T87f73P50CtAJ6-33" vertex="1">
          <mxGeometry x="250" width="230" height="30" as="geometry">
            <mxRectangle width="230" height="30" as="alternateBounds" />
          </mxGeometry>
        </mxCell>
        <mxCell id="YLrN16T87f73P50CtAJ6-51" style="shape=partialRectangle;connectable=0;fillColor=none;top=0;left=0;bottom=0;right=0;align=left;spacingLeft=6;overflow=hidden;whiteSpace=wrap;html=1;" parent="YLrN16T87f73P50CtAJ6-33" vertex="1">
          <mxGeometry x="480" width="150" height="30" as="geometry">
            <mxRectangle width="150" height="30" as="alternateBounds" />
          </mxGeometry>
        </mxCell>
        <mxCell id="YLrN16T87f73P50CtAJ6-55" style="shape=partialRectangle;connectable=0;fillColor=none;top=0;left=0;bottom=0;right=0;align=left;spacingLeft=6;overflow=hidden;whiteSpace=wrap;html=1;" parent="YLrN16T87f73P50CtAJ6-33" vertex="1">
          <mxGeometry x="630" width="150" height="30" as="geometry">
            <mxRectangle width="150" height="30" as="alternateBounds" />
          </mxGeometry>
        </mxCell>
        <mxCell id="YLrN16T87f73P50CtAJ6-59" style="shape=partialRectangle;connectable=0;fillColor=none;top=0;left=0;bottom=0;right=0;align=left;spacingLeft=6;overflow=hidden;whiteSpace=wrap;html=1;" parent="YLrN16T87f73P50CtAJ6-33" vertex="1">
          <mxGeometry x="780" width="150" height="30" as="geometry">
            <mxRectangle width="150" height="30" as="alternateBounds" />
          </mxGeometry>
        </mxCell>
        <mxCell id="qAUYeOdykLHGJDXNOfw6-1" value="payments" style="rounded=0;whiteSpace=wrap;html=1;fillColor=#ffe6cc;strokeColor=#d79b00;" vertex="1" parent="1">
          <mxGeometry x="240" y="1170" width="120" height="60" as="geometry" />
        </mxCell>
        <mxCell id="qAUYeOdykLHGJDXNOfw6-2" value="Create salt" style="rounded=0;whiteSpace=wrap;html=1;" vertex="1" parent="1">
          <mxGeometry x="555" y="1230" width="195" height="60" as="geometry" />
        </mxCell>
        <mxCell id="qAUYeOdykLHGJDXNOfw6-3" value="getPaymentWithId - Retrieve status and etc" style="rounded=0;whiteSpace=wrap;html=1;" vertex="1" parent="1">
          <mxGeometry x="360" y="1170" width="195" height="60" as="geometry" />
        </mxCell>
        <mxCell id="qAUYeOdykLHGJDXNOfw6-6" value="Compute address" style="rounded=0;whiteSpace=wrap;html=1;" vertex="1" parent="1">
          <mxGeometry x="750" y="1230" width="195" height="60" as="geometry" />
        </mxCell>
        <mxCell id="qAUYeOdykLHGJDXNOfw6-7" value="Create charge" style="rounded=0;whiteSpace=wrap;html=1;" vertex="1" parent="1">
          <mxGeometry x="945" y="1230" width="195" height="60" as="geometry" />
        </mxCell>
        <mxCell id="qAUYeOdykLHGJDXNOfw6-8" value="createPayment - {.chain, amount, metadata }&amp;nbsp;" style="rounded=0;whiteSpace=wrap;html=1;" vertex="1" parent="1">
          <mxGeometry x="360" y="1230" width="195" height="60" as="geometry" />
        </mxCell>
        <mxCell id="qAUYeOdykLHGJDXNOfw6-9" value="Create job" style="rounded=0;whiteSpace=wrap;html=1;" vertex="1" parent="1">
          <mxGeometry x="1140" y="1230" width="195" height="60" as="geometry" />
        </mxCell>
        <mxCell id="qAUYeOdykLHGJDXNOfw6-11" value="deamon polls db for job" style="rounded=0;whiteSpace=wrap;html=1;" vertex="1" parent="1">
          <mxGeometry x="555" y="1350" width="120" height="60" as="geometry" />
        </mxCell>
        <mxCell id="qAUYeOdykLHGJDXNOfw6-15" style="edgeStyle=orthogonalEdgeStyle;rounded=0;orthogonalLoop=1;jettySize=auto;html=1;entryX=0;entryY=0.5;entryDx=0;entryDy=0;" edge="1" parent="1" source="qAUYeOdykLHGJDXNOfw6-12" target="qAUYeOdykLHGJDXNOfw6-13">
          <mxGeometry relative="1" as="geometry" />
        </mxCell>
        <mxCell id="qAUYeOdykLHGJDXNOfw6-16" style="edgeStyle=orthogonalEdgeStyle;rounded=0;orthogonalLoop=1;jettySize=auto;html=1;entryX=0;entryY=0.5;entryDx=0;entryDy=0;" edge="1" parent="1" source="qAUYeOdykLHGJDXNOfw6-12" target="qAUYeOdykLHGJDXNOfw6-14">
          <mxGeometry relative="1" as="geometry" />
        </mxCell>
        <mxCell id="qAUYeOdykLHGJDXNOfw6-12" value="check balance" style="rounded=0;whiteSpace=wrap;html=1;" vertex="1" parent="1">
          <mxGeometry x="675" y="1350" width="120" height="60" as="geometry" />
        </mxCell>
        <mxCell id="qAUYeOdykLHGJDXNOfw6-13" value="deploy, withdraw, update tx" style="rounded=0;whiteSpace=wrap;html=1;" vertex="1" parent="1">
          <mxGeometry x="850" y="1350" width="120" height="60" as="geometry" />
        </mxCell>
        <mxCell id="qAUYeOdykLHGJDXNOfw6-14" value="schedulle new retry" style="rounded=0;whiteSpace=wrap;html=1;" vertex="1" parent="1">
          <mxGeometry x="850" y="1440" width="120" height="60" as="geometry" />
        </mxCell>
        <mxCell id="qAUYeOdykLHGJDXNOfw6-17" value="Modules" style="rounded=0;whiteSpace=wrap;html=1;fillColor=#dae8fc;strokeColor=#6c8ebf;" vertex="1" parent="1">
          <mxGeometry x="240" y="1100" width="1095" height="60" as="geometry" />
        </mxCell>
        <mxCell id="qAUYeOdykLHGJDXNOfw6-18" value="getAllPayments - Retrieve all payments" style="rounded=0;whiteSpace=wrap;html=1;" vertex="1" parent="1">
          <mxGeometry x="360" y="1290" width="195" height="60" as="geometry" />
        </mxCell>
        <mxCell id="qAUYeOdykLHGJDXNOfw6-19" value="withdrawWorker - queue" style="rounded=0;whiteSpace=wrap;html=1;" vertex="1" parent="1">
          <mxGeometry x="360" y="1350" width="195" height="60" as="geometry" />
        </mxCell>
        <mxCell id="qAUYeOdykLHGJDXNOfw6-20" value="paymentsService" style="rounded=0;whiteSpace=wrap;html=1;" vertex="1" parent="1">
          <mxGeometry x="275" y="1560" width="195" height="60" as="geometry" />
        </mxCell>
        <mxCell id="qAUYeOdykLHGJDXNOfw6-21" value="findById(id)" style="rounded=0;whiteSpace=wrap;html=1;" vertex="1" parent="1">
          <mxGeometry x="470" y="1560" width="195" height="60" as="geometry" />
        </mxCell>
        <mxCell id="qAUYeOdykLHGJDXNOfw6-22" value="create(chain, amount, metadata)" style="rounded=0;whiteSpace=wrap;html=1;" vertex="1" parent="1">
          <mxGeometry x="470" y="1620" width="195" height="60" as="geometry" />
        </mxCell>
        <mxCell id="qAUYeOdykLHGJDXNOfw6-23" value="findAll()" style="rounded=0;whiteSpace=wrap;html=1;" vertex="1" parent="1">
          <mxGeometry x="470" y="1680" width="195" height="60" as="geometry" />
        </mxCell>
        <mxCell id="qAUYeOdykLHGJDXNOfw6-24" value="withdrawQueueConsumer()" style="rounded=0;whiteSpace=wrap;html=1;" vertex="1" parent="1">
          <mxGeometry x="910" y="1790" width="195" height="60" as="geometry" />
        </mxCell>
        <mxCell id="qAUYeOdykLHGJDXNOfw6-25" value="withdraw(id)" style="rounded=0;whiteSpace=wrap;html=1;" vertex="1" parent="1">
          <mxGeometry x="910" y="1850" width="195" height="60" as="geometry" />
        </mxCell>
        <mxCell id="qAUYeOdykLHGJDXNOfw6-26" value="forwarderService" style="rounded=0;whiteSpace=wrap;html=1;" vertex="1" parent="1">
          <mxGeometry x="275" y="1930" width="195" height="60" as="geometry" />
        </mxCell>
        <mxCell id="qAUYeOdykLHGJDXNOfw6-27" value="computeAddress" style="rounded=0;whiteSpace=wrap;html=1;" vertex="1" parent="1">
          <mxGeometry x="470" y="1930" width="195" height="60" as="geometry" />
        </mxCell>
        <mxCell id="qAUYeOdykLHGJDXNOfw6-28" value="canFlush" style="rounded=0;whiteSpace=wrap;html=1;" vertex="1" parent="1">
          <mxGeometry x="470" y="1990" width="195" height="60" as="geometry" />
        </mxCell>
        <mxCell id="qAUYeOdykLHGJDXNOfw6-29" value="flushNative" style="rounded=0;whiteSpace=wrap;html=1;" vertex="1" parent="1">
          <mxGeometry x="470" y="2050" width="195" height="60" as="geometry" />
        </mxCell>
        <mxCell id="qAUYeOdykLHGJDXNOfw6-30" value="flushToken" style="rounded=0;whiteSpace=wrap;html=1;" vertex="1" parent="1">
          <mxGeometry x="470" y="2110" width="195" height="60" as="geometry" />
        </mxCell>
        <mxCell id="qAUYeOdykLHGJDXNOfw6-31" value="create" style="rounded=0;whiteSpace=wrap;html=1;" vertex="1" parent="1">
          <mxGeometry x="470" y="2170" width="195" height="60" as="geometry" />
        </mxCell>
        <mxCell id="qAUYeOdykLHGJDXNOfw6-32" value="manually withdraw" style="rounded=0;whiteSpace=wrap;html=1;" vertex="1" parent="1">
          <mxGeometry x="1105" y="1850" width="195" height="60" as="geometry" />
        </mxCell>
        <mxCell id="qAUYeOdykLHGJDXNOfw6-33" value="withdraw dequeue and process" style="rounded=0;whiteSpace=wrap;html=1;" vertex="1" parent="1">
          <mxGeometry x="1105" y="1790" width="195" height="60" as="geometry" />
        </mxCell>
        <mxCell id="qAUYeOdykLHGJDXNOfw6-34" value="withdrawService" style="rounded=0;whiteSpace=wrap;html=1;" vertex="1" parent="1">
          <mxGeometry x="715" y="1730" width="195" height="60" as="geometry" />
        </mxCell>
        <mxCell id="qAUYeOdykLHGJDXNOfw6-35" value="withdrawQueuePush()" style="rounded=0;whiteSpace=wrap;html=1;" vertex="1" parent="1">
          <mxGeometry x="910" y="1730" width="195" height="60" as="geometry" />
        </mxCell>
        <mxCell id="qAUYeOdykLHGJDXNOfw6-36" value="withdraw enqueue" style="rounded=0;whiteSpace=wrap;html=1;" vertex="1" parent="1">
          <mxGeometry x="1105" y="1730" width="195" height="60" as="geometry" />
        </mxCell>
        <mxCell id="qAUYeOdykLHGJDXNOfw6-37" value="canWithdraw(id)" style="rounded=0;whiteSpace=wrap;html=1;" vertex="1" parent="1">
          <mxGeometry x="910" y="1910" width="195" height="60" as="geometry" />
        </mxCell>
        <mxCell id="qAUYeOdykLHGJDXNOfw6-38" value="Services" style="rounded=0;whiteSpace=wrap;html=1;fillColor=#dae8fc;strokeColor=#6c8ebf;" vertex="1" parent="1">
          <mxGeometry x="250" y="1500" width="1095" height="60" as="geometry" />
        </mxCell>
        <mxCell id="qAUYeOdykLHGJDXNOfw6-39" value="Controllers" style="rounded=0;whiteSpace=wrap;html=1;fillColor=#dae8fc;strokeColor=#6c8ebf;" vertex="1" parent="1">
          <mxGeometry x="275" y="2290" width="1095" height="60" as="geometry" />
        </mxCell>
        <mxCell id="qAUYeOdykLHGJDXNOfw6-40" value="paymentsController" style="rounded=0;whiteSpace=wrap;html=1;" vertex="1" parent="1">
          <mxGeometry x="285" y="2390" width="195" height="60" as="geometry" />
        </mxCell>
        <mxCell id="qAUYeOdykLHGJDXNOfw6-41" value="create" style="rounded=0;whiteSpace=wrap;html=1;" vertex="1" parent="1">
          <mxGeometry x="480" y="2390" width="195" height="60" as="geometry" />
        </mxCell>
        <mxCell id="qAUYeOdykLHGJDXNOfw6-42" value="findById" style="rounded=0;whiteSpace=wrap;html=1;" vertex="1" parent="1">
          <mxGeometry x="480" y="2450" width="195" height="60" as="geometry" />
        </mxCell>
        <mxCell id="qAUYeOdykLHGJDXNOfw6-43" value="findAll" style="rounded=0;whiteSpace=wrap;html=1;" vertex="1" parent="1">
          <mxGeometry x="480" y="2510" width="195" height="60" as="geometry" />
        </mxCell>
        <mxCell id="qAUYeOdykLHGJDXNOfw6-44" value="startWithdrawWorker" style="rounded=0;whiteSpace=wrap;html=1;" vertex="1" parent="1">
          <mxGeometry x="480" y="2570" width="195" height="60" as="geometry" />
        </mxCell>
        <mxCell id="qAUYeOdykLHGJDXNOfw6-45" value="withdraw" style="rounded=0;whiteSpace=wrap;html=1;" vertex="1" parent="1">
          <mxGeometry x="480" y="2630" width="195" height="60" as="geometry" />
        </mxCell>
        <mxCell id="qAUYeOdykLHGJDXNOfw6-47" value="flush" style="rounded=0;whiteSpace=wrap;html=1;" vertex="1" parent="1">
          <mxGeometry x="330" y="80" width="120" height="60" as="geometry" />
        </mxCell>
        <mxCell id="qAUYeOdykLHGJDXNOfw6-48" value="forwardTo" style="rounded=0;whiteSpace=wrap;html=1;" vertex="1" parent="1">
          <mxGeometry x="330" y="50" width="120" height="30" as="geometry" />
        </mxCell>
        <mxCell id="qAUYeOdykLHGJDXNOfw6-52" value="event ForwarderFlushed(address to, address flusher, address token, uint value)" style="rounded=0;whiteSpace=wrap;html=1;fillColor=#d5e8d4;strokeColor=#82b366;" vertex="1" parent="1">
          <mxGeometry x="200" y="170" width="500" height="30" as="geometry" />
        </mxCell>
        <mxCell id="qAUYeOdykLHGJDXNOfw6-53" value="get first" style="rounded=0;whiteSpace=wrap;html=1;" vertex="1" parent="1">
          <mxGeometry x="1390" y="550" width="130" height="60" as="geometry" />
        </mxCell>
        <mxCell id="qAUYeOdykLHGJDXNOfw6-55" value="processing" style="rounded=0;whiteSpace=wrap;html=1;" vertex="1" parent="1">
          <mxGeometry x="1550" y="550" width="130" height="60" as="geometry" />
        </mxCell>
        <mxCell id="qAUYeOdykLHGJDXNOfw6-56" value="not ready" style="rounded=0;whiteSpace=wrap;html=1;" vertex="1" parent="1">
          <mxGeometry x="1700" y="550" width="130" height="60" as="geometry" />
        </mxCell>
        <mxCell id="qAUYeOdykLHGJDXNOfw6-57" value="back to pending" style="rounded=0;whiteSpace=wrap;html=1;" vertex="1" parent="1">
          <mxGeometry x="1850" y="550" width="130" height="60" as="geometry" />
        </mxCell>
        <mxCell id="qAUYeOdykLHGJDXNOfw6-58" value="error" style="rounded=0;whiteSpace=wrap;html=1;" vertex="1" parent="1">
          <mxGeometry x="1700" y="620" width="130" height="60" as="geometry" />
        </mxCell>
        <mxCell id="qAUYeOdykLHGJDXNOfw6-59" value="failure" style="rounded=0;whiteSpace=wrap;html=1;" vertex="1" parent="1">
          <mxGeometry x="1850" y="620" width="130" height="60" as="geometry" />
        </mxCell>
        <mxCell id="qAUYeOdykLHGJDXNOfw6-60" value="Contract call relayer! Scan to mint, scan to bridge, etc" style="rounded=0;whiteSpace=wrap;html=1;" vertex="1" parent="1">
          <mxGeometry x="790" y="10" width="120" height="60" as="geometry" />
        </mxCell>
        <mxCell id="qAUYeOdykLHGJDXNOfw6-61" value="Consumer" style="shape=umlLifeline;perimeter=lifelinePerimeter;whiteSpace=wrap;html=1;container=1;dropTarget=0;collapsible=0;recursiveResize=0;outlineConnect=0;portConstraint=eastwest;newEdgeStyle={&quot;curved&quot;:0,&quot;rounded&quot;:0};fillColor=#dae8fc;strokeColor=#6c8ebf;strokeWidth=2;" vertex="1" parent="1">
          <mxGeometry x="-760" y="600" width="100" height="1200" as="geometry" />
        </mxCell>
        <mxCell id="qAUYeOdykLHGJDXNOfw6-88" value="" style="html=1;points=[[0,0,0,0,5],[0,1,0,0,-5],[1,0,0,0,5],[1,1,0,0,-5]];perimeter=orthogonalPerimeter;outlineConnect=0;targetShapes=umlLifeline;portConstraint=eastwest;newEdgeStyle={&quot;curved&quot;:0,&quot;rounded&quot;:0};" vertex="1" parent="qAUYeOdykLHGJDXNOfw6-61">
          <mxGeometry x="45" y="650" width="10" height="40" as="geometry" />
        </mxCell>
        <mxCell id="qAUYeOdykLHGJDXNOfw6-89" value="Sends funds&amp;nbsp;&lt;div&gt;to forwarder&lt;/div&gt;" style="html=1;align=left;spacingLeft=2;endArrow=block;rounded=0;edgeStyle=orthogonalEdgeStyle;curved=0;rounded=0;" edge="1" target="qAUYeOdykLHGJDXNOfw6-88" parent="qAUYeOdykLHGJDXNOfw6-61">
          <mxGeometry x="0.0084" relative="1" as="geometry">
            <mxPoint x="50" y="630" as="sourcePoint" />
            <Array as="points">
              <mxPoint x="80" y="660" />
            </Array>
            <mxPoint as="offset" />
          </mxGeometry>
        </mxCell>
        <mxCell id="qAUYeOdykLHGJDXNOfw6-63" value="cli/server/etc" style="shape=umlLifeline;perimeter=lifelinePerimeter;whiteSpace=wrap;html=1;container=1;dropTarget=0;collapsible=0;recursiveResize=0;outlineConnect=0;portConstraint=eastwest;newEdgeStyle={&quot;curved&quot;:0,&quot;rounded&quot;:0};fillColor=#dae8fc;strokeColor=#6c8ebf;rounded=0;glass=0;shadow=0;strokeWidth=2;" vertex="1" parent="1">
          <mxGeometry x="-640" y="600" width="100" height="1200" as="geometry" />
        </mxCell>
        <mxCell id="qAUYeOdykLHGJDXNOfw6-71" value="" style="html=1;points=[[0,0,0,0,5],[0,1,0,0,-5],[1,0,0,0,5],[1,1,0,0,-5]];perimeter=orthogonalPerimeter;outlineConnect=0;targetShapes=umlLifeline;portConstraint=eastwest;newEdgeStyle={&quot;curved&quot;:0,&quot;rounded&quot;:0};" vertex="1" parent="qAUYeOdykLHGJDXNOfw6-63">
          <mxGeometry x="45" y="115" width="10" height="175" as="geometry" />
        </mxCell>
        <mxCell id="qAUYeOdykLHGJDXNOfw6-64" value="ForwarderFactory" style="shape=umlLifeline;perimeter=lifelinePerimeter;whiteSpace=wrap;html=1;container=1;dropTarget=0;collapsible=0;recursiveResize=0;outlineConnect=0;portConstraint=eastwest;newEdgeStyle={&quot;curved&quot;:0,&quot;rounded&quot;:0};fillColor=#dae8fc;strokeColor=#6c8ebf;strokeWidth=2;" vertex="1" parent="1">
          <mxGeometry x="-510" y="600" width="100" height="1200" as="geometry" />
        </mxCell>
        <mxCell id="qAUYeOdykLHGJDXNOfw6-79" value="" style="html=1;points=[[0,0,0,0,5],[0,1,0,0,-5],[1,0,0,0,5],[1,1,0,0,-5]];perimeter=orthogonalPerimeter;outlineConnect=0;targetShapes=umlLifeline;portConstraint=eastwest;newEdgeStyle={&quot;curved&quot;:0,&quot;rounded&quot;:0};" vertex="1" parent="qAUYeOdykLHGJDXNOfw6-64">
          <mxGeometry x="45" y="120" width="10" height="40" as="geometry" />
        </mxCell>
        <mxCell id="qAUYeOdykLHGJDXNOfw6-116" value="" style="html=1;points=[[0,0,0,0,5],[0,1,0,0,-5],[1,0,0,0,5],[1,1,0,0,-5]];perimeter=orthogonalPerimeter;outlineConnect=0;targetShapes=umlLifeline;portConstraint=eastwest;newEdgeStyle={&quot;curved&quot;:0,&quot;rounded&quot;:0};" vertex="1" parent="qAUYeOdykLHGJDXNOfw6-64">
          <mxGeometry x="45" y="780" width="10" height="50" as="geometry" />
        </mxCell>
        <mxCell id="qAUYeOdykLHGJDXNOfw6-65" value="Forwarder" style="shape=umlLifeline;perimeter=lifelinePerimeter;whiteSpace=wrap;html=1;container=1;dropTarget=0;collapsible=0;recursiveResize=0;outlineConnect=0;portConstraint=eastwest;newEdgeStyle={&quot;curved&quot;:0,&quot;rounded&quot;:0};fillColor=#dae8fc;strokeColor=#6c8ebf;strokeWidth=2;" vertex="1" parent="1">
          <mxGeometry x="-390" y="600" width="100" height="1200" as="geometry" />
        </mxCell>
        <mxCell id="qAUYeOdykLHGJDXNOfw6-122" value="" style="html=1;points=[[0,0,0,0,5],[0,1,0,0,-5],[1,0,0,0,5],[1,1,0,0,-5]];perimeter=orthogonalPerimeter;outlineConnect=0;targetShapes=umlLifeline;portConstraint=eastwest;newEdgeStyle={&quot;curved&quot;:0,&quot;rounded&quot;:0};" vertex="1" parent="qAUYeOdykLHGJDXNOfw6-65">
          <mxGeometry x="45" y="880" width="10" height="40" as="geometry" />
        </mxCell>
        <mxCell id="qAUYeOdykLHGJDXNOfw6-66" value="Worker" style="shape=umlLifeline;perimeter=lifelinePerimeter;whiteSpace=wrap;html=1;container=1;dropTarget=0;collapsible=0;recursiveResize=0;outlineConnect=0;portConstraint=eastwest;newEdgeStyle={&quot;curved&quot;:0,&quot;rounded&quot;:0};fillColor=#dae8fc;strokeColor=#6c8ebf;strokeWidth=2;" vertex="1" parent="1">
          <mxGeometry x="-270" y="600" width="100" height="1200" as="geometry" />
        </mxCell>
        <mxCell id="qAUYeOdykLHGJDXNOfw6-105" value="" style="html=1;points=[[0,0,0,0,5],[0,1,0,0,-5],[1,0,0,0,5],[1,1,0,0,-5]];perimeter=orthogonalPerimeter;outlineConnect=0;targetShapes=umlLifeline;portConstraint=eastwest;newEdgeStyle={&quot;curved&quot;:0,&quot;rounded&quot;:0};" vertex="1" parent="qAUYeOdykLHGJDXNOfw6-66">
          <mxGeometry x="45" y="720" width="10" height="40" as="geometry" />
        </mxCell>
        <mxCell id="qAUYeOdykLHGJDXNOfw6-106" value="Check forwarder&amp;nbsp;&lt;div&gt;balances&lt;/div&gt;" style="html=1;align=left;spacingLeft=2;endArrow=block;rounded=0;edgeStyle=orthogonalEdgeStyle;curved=0;rounded=0;" edge="1" parent="qAUYeOdykLHGJDXNOfw6-66" target="qAUYeOdykLHGJDXNOfw6-105">
          <mxGeometry relative="1" as="geometry">
            <mxPoint x="50" y="700" as="sourcePoint" />
            <Array as="points">
              <mxPoint x="80" y="730" />
            </Array>
          </mxGeometry>
        </mxCell>
        <mxCell id="qAUYeOdykLHGJDXNOfw6-72" value="create payment" style="html=1;verticalAlign=bottom;endArrow=block;curved=0;rounded=0;entryX=0;entryY=0;entryDx=0;entryDy=5;" edge="1" target="qAUYeOdykLHGJDXNOfw6-71" parent="1" source="qAUYeOdykLHGJDXNOfw6-61">
          <mxGeometry x="-0.0012" relative="1" as="geometry">
            <mxPoint x="-665" y="720" as="sourcePoint" />
            <mxPoint as="offset" />
          </mxGeometry>
        </mxCell>
        <mxCell id="qAUYeOdykLHGJDXNOfw6-73" value="Forwarder Address" style="html=1;verticalAlign=bottom;endArrow=open;dashed=1;endSize=8;curved=0;rounded=0;exitX=0;exitY=1;exitDx=0;exitDy=-5;" edge="1" source="qAUYeOdykLHGJDXNOfw6-71" parent="1" target="qAUYeOdykLHGJDXNOfw6-61">
          <mxGeometry x="0.0015" relative="1" as="geometry">
            <mxPoint x="-665" y="790" as="targetPoint" />
            <mxPoint as="offset" />
          </mxGeometry>
        </mxCell>
        <mxCell id="qAUYeOdykLHGJDXNOfw6-78" value="DB" style="shape=umlLifeline;perimeter=lifelinePerimeter;whiteSpace=wrap;html=1;container=1;dropTarget=0;collapsible=0;recursiveResize=0;outlineConnect=0;portConstraint=eastwest;newEdgeStyle={&quot;curved&quot;:0,&quot;rounded&quot;:0};fillColor=#dae8fc;strokeColor=#6c8ebf;strokeWidth=2;" vertex="1" parent="1">
          <mxGeometry x="-160" y="600" width="100" height="1200" as="geometry" />
        </mxCell>
        <mxCell id="qAUYeOdykLHGJDXNOfw6-102" value="" style="html=1;points=[[0,0,0,0,5],[0,1,0,0,-5],[1,0,0,0,5],[1,1,0,0,-5]];perimeter=orthogonalPerimeter;outlineConnect=0;targetShapes=umlLifeline;portConstraint=eastwest;newEdgeStyle={&quot;curved&quot;:0,&quot;rounded&quot;:0};" vertex="1" parent="qAUYeOdykLHGJDXNOfw6-78">
          <mxGeometry x="45" y="540" width="10" height="40" as="geometry" />
        </mxCell>
        <mxCell id="qAUYeOdykLHGJDXNOfw6-103" value="not enough&lt;div&gt;release job&lt;/div&gt;" style="html=1;verticalAlign=bottom;endArrow=block;curved=0;rounded=0;entryX=0;entryY=0;entryDx=0;entryDy=5;" edge="1" parent="qAUYeOdykLHGJDXNOfw6-78" target="qAUYeOdykLHGJDXNOfw6-102">
          <mxGeometry x="-0.0018" relative="1" as="geometry">
            <mxPoint x="-60" y="545" as="sourcePoint" />
            <mxPoint as="offset" />
          </mxGeometry>
        </mxCell>
        <mxCell id="qAUYeOdykLHGJDXNOfw6-104" value="return" style="html=1;verticalAlign=bottom;endArrow=open;dashed=1;endSize=8;curved=0;rounded=0;exitX=0;exitY=1;exitDx=0;exitDy=-5;" edge="1" parent="qAUYeOdykLHGJDXNOfw6-78" source="qAUYeOdykLHGJDXNOfw6-102">
          <mxGeometry relative="1" as="geometry">
            <mxPoint x="-60" y="575" as="targetPoint" />
          </mxGeometry>
        </mxCell>
        <mxCell id="qAUYeOdykLHGJDXNOfw6-129" value="ack" style="html=1;verticalAlign=bottom;endArrow=open;dashed=1;endSize=8;curved=0;rounded=0;exitX=0;exitY=1;exitDx=0;exitDy=-5;" edge="1" parent="qAUYeOdykLHGJDXNOfw6-78" source="qAUYeOdykLHGJDXNOfw6-131">
          <mxGeometry relative="1" as="geometry">
            <mxPoint x="-60" y="995" as="targetPoint" />
          </mxGeometry>
        </mxCell>
        <mxCell id="qAUYeOdykLHGJDXNOfw6-130" value="job completed" style="html=1;verticalAlign=bottom;endArrow=block;curved=0;rounded=0;entryX=0;entryY=0;entryDx=0;entryDy=5;" edge="1" parent="qAUYeOdykLHGJDXNOfw6-78" target="qAUYeOdykLHGJDXNOfw6-131">
          <mxGeometry x="-0.0095" relative="1" as="geometry">
            <mxPoint x="-60" y="965" as="sourcePoint" />
            <mxPoint as="offset" />
          </mxGeometry>
        </mxCell>
        <mxCell id="qAUYeOdykLHGJDXNOfw6-131" value="" style="html=1;points=[[0,0,0,0,5],[0,1,0,0,-5],[1,0,0,0,5],[1,1,0,0,-5]];perimeter=orthogonalPerimeter;outlineConnect=0;targetShapes=umlLifeline;portConstraint=eastwest;newEdgeStyle={&quot;curved&quot;:0,&quot;rounded&quot;:0};" vertex="1" parent="qAUYeOdykLHGJDXNOfw6-78">
          <mxGeometry x="45" y="960" width="10" height="40" as="geometry" />
        </mxCell>
        <mxCell id="qAUYeOdykLHGJDXNOfw6-144" value="" style="html=1;points=[[0,0,0,0,5],[0,1,0,0,-5],[1,0,0,0,5],[1,1,0,0,-5]];perimeter=orthogonalPerimeter;outlineConnect=0;targetShapes=umlLifeline;portConstraint=eastwest;newEdgeStyle={&quot;curved&quot;:0,&quot;rounded&quot;:0};" vertex="1" parent="qAUYeOdykLHGJDXNOfw6-78">
          <mxGeometry x="45" y="184" width="10" height="30" as="geometry" />
        </mxCell>
        <mxCell id="qAUYeOdykLHGJDXNOfw6-147" value="" style="html=1;points=[[0,0,0,0,5],[0,1,0,0,-5],[1,0,0,0,5],[1,1,0,0,-5]];perimeter=orthogonalPerimeter;outlineConnect=0;targetShapes=umlLifeline;portConstraint=eastwest;newEdgeStyle={&quot;curved&quot;:0,&quot;rounded&quot;:0};" vertex="1" parent="qAUYeOdykLHGJDXNOfw6-78">
          <mxGeometry x="45" y="241" width="10" height="30" as="geometry" />
        </mxCell>
        <mxCell id="qAUYeOdykLHGJDXNOfw6-148" value="ack" style="html=1;verticalAlign=bottom;endArrow=open;dashed=1;endSize=8;curved=0;rounded=0;" edge="1" parent="qAUYeOdykLHGJDXNOfw6-78">
          <mxGeometry relative="1" as="geometry">
            <mxPoint x="-425" y="266" as="targetPoint" />
            <mxPoint x="39" y="266" as="sourcePoint" />
          </mxGeometry>
        </mxCell>
        <mxCell id="qAUYeOdykLHGJDXNOfw6-149" value="create withdrawal job" style="html=1;verticalAlign=bottom;endArrow=block;curved=0;rounded=0;entryX=0;entryY=0;entryDx=0;entryDy=5;" edge="1" parent="qAUYeOdykLHGJDXNOfw6-78" target="qAUYeOdykLHGJDXNOfw6-147">
          <mxGeometry x="0.0034" relative="1" as="geometry">
            <mxPoint x="-425" y="246" as="sourcePoint" />
            <mxPoint as="offset" />
          </mxGeometry>
        </mxCell>
        <mxCell id="qAUYeOdykLHGJDXNOfw6-80" value="compute Forwarder&amp;nbsp;&lt;div&gt;address&lt;/div&gt;" style="html=1;verticalAlign=bottom;endArrow=block;curved=0;rounded=0;entryX=0;entryY=0;entryDx=0;entryDy=5;" edge="1" target="qAUYeOdykLHGJDXNOfw6-79" parent="1" source="qAUYeOdykLHGJDXNOfw6-63">
          <mxGeometry relative="1" as="geometry">
            <mxPoint x="-535" y="725" as="sourcePoint" />
            <mxPoint as="offset" />
          </mxGeometry>
        </mxCell>
        <mxCell id="qAUYeOdykLHGJDXNOfw6-81" value="(Forwarder address, salt )" style="html=1;verticalAlign=bottom;endArrow=open;dashed=1;endSize=8;curved=0;rounded=0;exitX=0;exitY=1;exitDx=0;exitDy=-5;" edge="1" source="qAUYeOdykLHGJDXNOfw6-79" parent="1" target="qAUYeOdykLHGJDXNOfw6-63">
          <mxGeometry x="0.0428" y="-5" relative="1" as="geometry">
            <mxPoint x="-535" y="795" as="targetPoint" />
            <mxPoint as="offset" />
          </mxGeometry>
        </mxCell>
        <mxCell id="qAUYeOdykLHGJDXNOfw6-90" value="loop" style="shape=umlFrame;whiteSpace=wrap;html=1;pointerEvents=0;" vertex="1" parent="1">
          <mxGeometry x="-490" y="940" width="400" height="830" as="geometry" />
        </mxCell>
        <mxCell id="qAUYeOdykLHGJDXNOfw6-91" value="[Job processing]" style="text;html=1;align=center;verticalAlign=middle;resizable=0;points=[];autosize=1;strokeColor=none;fillColor=none;" vertex="1" parent="1">
          <mxGeometry x="-335" y="940" width="110" height="30" as="geometry" />
        </mxCell>
        <mxCell id="qAUYeOdykLHGJDXNOfw6-95" value="" style="html=1;points=[[0,0,0,0,5],[0,1,0,0,-5],[1,0,0,0,5],[1,1,0,0,-5]];perimeter=orthogonalPerimeter;outlineConnect=0;targetShapes=umlLifeline;portConstraint=eastwest;newEdgeStyle={&quot;curved&quot;:0,&quot;rounded&quot;:0};" vertex="1" parent="1">
          <mxGeometry x="-115" y="990" width="10" height="40" as="geometry" />
        </mxCell>
        <mxCell id="qAUYeOdykLHGJDXNOfw6-96" value="transactional&amp;nbsp;&lt;div&gt;job request&lt;/div&gt;" style="html=1;verticalAlign=bottom;endArrow=block;curved=0;rounded=0;entryX=0;entryY=0;entryDx=0;entryDy=5;" edge="1" target="qAUYeOdykLHGJDXNOfw6-95" parent="1" source="qAUYeOdykLHGJDXNOfw6-66">
          <mxGeometry x="-0.0076" relative="1" as="geometry">
            <mxPoint x="-185" y="995" as="sourcePoint" />
            <mxPoint as="offset" />
          </mxGeometry>
        </mxCell>
        <mxCell id="qAUYeOdykLHGJDXNOfw6-97" value="job, payment" style="html=1;verticalAlign=bottom;endArrow=open;dashed=1;endSize=8;curved=0;rounded=0;exitX=0;exitY=1;exitDx=0;exitDy=-5;" edge="1" source="qAUYeOdykLHGJDXNOfw6-95" parent="1" target="qAUYeOdykLHGJDXNOfw6-66">
          <mxGeometry x="0.0064" relative="1" as="geometry">
            <mxPoint x="-185" y="1065" as="targetPoint" />
            <mxPoint as="offset" />
          </mxGeometry>
        </mxCell>
        <mxCell id="qAUYeOdykLHGJDXNOfw6-100" value="" style="html=1;points=[[0,0,0,0,5],[0,1,0,0,-5],[1,0,0,0,5],[1,1,0,0,-5]];perimeter=orthogonalPerimeter;outlineConnect=0;targetShapes=umlLifeline;portConstraint=eastwest;newEdgeStyle={&quot;curved&quot;:0,&quot;rounded&quot;:0};" vertex="1" parent="1">
          <mxGeometry x="-225" y="1080" width="10" height="40" as="geometry" />
        </mxCell>
        <mxCell id="qAUYeOdykLHGJDXNOfw6-101" value="Check forwarder&amp;nbsp;&lt;div&gt;balances&lt;/div&gt;" style="html=1;align=left;spacingLeft=2;endArrow=block;rounded=0;edgeStyle=orthogonalEdgeStyle;curved=0;rounded=0;" edge="1" target="qAUYeOdykLHGJDXNOfw6-100" parent="1">
          <mxGeometry relative="1" as="geometry">
            <mxPoint x="-220" y="1060" as="sourcePoint" />
            <Array as="points">
              <mxPoint x="-190" y="1090" />
            </Array>
          </mxGeometry>
        </mxCell>
        <mxCell id="qAUYeOdykLHGJDXNOfw6-117" value="Enough. Deploy forwarder" style="html=1;verticalAlign=bottom;endArrow=block;curved=0;rounded=0;entryX=1;entryY=0;entryDx=0;entryDy=5;entryPerimeter=0;" edge="1" target="qAUYeOdykLHGJDXNOfw6-116" parent="1" source="qAUYeOdykLHGJDXNOfw6-66">
          <mxGeometry x="0.0012" relative="1" as="geometry">
            <mxPoint x="-535" y="1385" as="sourcePoint" />
            <mxPoint as="offset" />
          </mxGeometry>
        </mxCell>
        <mxCell id="qAUYeOdykLHGJDXNOfw6-118" value="hash" style="html=1;verticalAlign=bottom;endArrow=open;dashed=1;endSize=8;curved=0;rounded=0;exitX=1;exitY=1;exitDx=0;exitDy=-5;exitPerimeter=0;" edge="1" source="qAUYeOdykLHGJDXNOfw6-116" parent="1" target="qAUYeOdykLHGJDXNOfw6-66">
          <mxGeometry relative="1" as="geometry">
            <mxPoint x="-535" y="1455" as="targetPoint" />
          </mxGeometry>
        </mxCell>
        <mxCell id="qAUYeOdykLHGJDXNOfw6-123" value="flush tokens" style="html=1;verticalAlign=bottom;endArrow=block;curved=0;rounded=0;entryX=1;entryY=0;entryDx=0;entryDy=5;entryPerimeter=0;" edge="1" target="qAUYeOdykLHGJDXNOfw6-122" parent="1" source="qAUYeOdykLHGJDXNOfw6-66">
          <mxGeometry x="0.0017" relative="1" as="geometry">
            <mxPoint x="-415" y="1535" as="sourcePoint" />
            <mxPoint as="offset" />
          </mxGeometry>
        </mxCell>
        <mxCell id="qAUYeOdykLHGJDXNOfw6-124" value="hash" style="html=1;verticalAlign=bottom;endArrow=open;dashed=1;endSize=8;curved=0;rounded=0;exitX=1;exitY=1;exitDx=0;exitDy=-5;exitPerimeter=0;" edge="1" source="qAUYeOdykLHGJDXNOfw6-122" parent="1" target="qAUYeOdykLHGJDXNOfw6-66">
          <mxGeometry relative="1" as="geometry">
            <mxPoint x="-415" y="1605" as="targetPoint" />
          </mxGeometry>
        </mxCell>
        <mxCell id="qAUYeOdykLHGJDXNOfw6-128" value="job, payment" style="html=1;verticalAlign=bottom;endArrow=open;dashed=1;endSize=8;curved=0;rounded=0;exitX=0;exitY=1;exitDx=0;exitDy=-5;" edge="1" parent="1" source="qAUYeOdykLHGJDXNOfw6-126">
          <mxGeometry x="0.0014" relative="1" as="geometry">
            <mxPoint x="-220" y="1265" as="targetPoint" />
            <mxPoint as="offset" />
          </mxGeometry>
        </mxCell>
        <mxCell id="qAUYeOdykLHGJDXNOfw6-127" value="transactional&amp;nbsp;&lt;div&gt;job request&lt;/div&gt;" style="html=1;verticalAlign=bottom;endArrow=block;curved=0;rounded=0;entryX=0;entryY=0;entryDx=0;entryDy=5;" edge="1" parent="1" target="qAUYeOdykLHGJDXNOfw6-126">
          <mxGeometry x="-0.0076" relative="1" as="geometry">
            <mxPoint x="-220" y="1235" as="sourcePoint" />
            <mxPoint as="offset" />
          </mxGeometry>
        </mxCell>
        <mxCell id="qAUYeOdykLHGJDXNOfw6-126" value="" style="html=1;points=[[0,0,0,0,5],[0,1,0,0,-5],[1,0,0,0,5],[1,1,0,0,-5]];perimeter=orthogonalPerimeter;outlineConnect=0;targetShapes=umlLifeline;portConstraint=eastwest;newEdgeStyle={&quot;curved&quot;:0,&quot;rounded&quot;:0};" vertex="1" parent="1">
          <mxGeometry x="-115" y="1230" width="10" height="40" as="geometry" />
        </mxCell>
        <mxCell id="qAUYeOdykLHGJDXNOfw6-133" value="webhooks, product release, etc." style="ellipse;whiteSpace=wrap;html=1;" vertex="1" parent="1">
          <mxGeometry x="-290" y="1650" width="140" height="70" as="geometry" />
        </mxCell>
        <mxCell id="qAUYeOdykLHGJDXNOfw6-134" value="Consumer" style="whiteSpace=wrap;html=1;fillColor=#dae8fc;strokeColor=#6c8ebf;strokeWidth=2;" vertex="1" parent="1">
          <mxGeometry x="-760" y="1800" width="100" height="40" as="geometry" />
        </mxCell>
        <mxCell id="qAUYeOdykLHGJDXNOfw6-136" value="cli/server/etc" style="whiteSpace=wrap;html=1;fillColor=#dae8fc;strokeColor=#6c8ebf;strokeWidth=2;" vertex="1" parent="1">
          <mxGeometry x="-640" y="1800" width="100" height="40" as="geometry" />
        </mxCell>
        <mxCell id="qAUYeOdykLHGJDXNOfw6-137" value="ForwarderFactory" style="whiteSpace=wrap;html=1;fillColor=#dae8fc;strokeColor=#6c8ebf;strokeWidth=2;" vertex="1" parent="1">
          <mxGeometry x="-510" y="1800" width="100" height="40" as="geometry" />
        </mxCell>
        <mxCell id="qAUYeOdykLHGJDXNOfw6-138" value="Forwarder" style="whiteSpace=wrap;html=1;fillColor=#dae8fc;strokeColor=#6c8ebf;strokeWidth=2;" vertex="1" parent="1">
          <mxGeometry x="-390" y="1800" width="100" height="40" as="geometry" />
        </mxCell>
        <mxCell id="qAUYeOdykLHGJDXNOfw6-139" value="Worker" style="whiteSpace=wrap;html=1;fillColor=#dae8fc;strokeColor=#6c8ebf;strokeWidth=2;" vertex="1" parent="1">
          <mxGeometry x="-270" y="1800" width="100" height="40" as="geometry" />
        </mxCell>
        <mxCell id="qAUYeOdykLHGJDXNOfw6-140" value="DB" style="whiteSpace=wrap;html=1;fillColor=#dae8fc;strokeColor=#6c8ebf;strokeWidth=2;" vertex="1" parent="1">
          <mxGeometry x="-160" y="1800" width="100" height="40" as="geometry" />
        </mxCell>
        <mxCell id="qAUYeOdykLHGJDXNOfw6-143" value="" style="endArrow=none;dashed=1;html=1;rounded=0;fillColor=#ffe6cc;strokeColor=#d79b00;strokeWidth=2;" edge="1" parent="1">
          <mxGeometry width="50" height="50" relative="1" as="geometry">
            <mxPoint x="-20" y="1200" as="sourcePoint" />
            <mxPoint x="-800" y="1200" as="targetPoint" />
          </mxGeometry>
        </mxCell>
        <mxCell id="qAUYeOdykLHGJDXNOfw6-146" value="ack" style="html=1;verticalAlign=bottom;endArrow=open;dashed=1;endSize=8;curved=0;rounded=0;exitX=0;exitY=1;exitDx=0;exitDy=-5;" edge="1" source="qAUYeOdykLHGJDXNOfw6-144" parent="1">
          <mxGeometry relative="1" as="geometry">
            <mxPoint x="-585" y="809" as="targetPoint" />
          </mxGeometry>
        </mxCell>
        <mxCell id="qAUYeOdykLHGJDXNOfw6-145" value="store salt and payment details" style="html=1;verticalAlign=bottom;endArrow=block;curved=0;rounded=0;entryX=0;entryY=0;entryDx=0;entryDy=5;" edge="1" target="qAUYeOdykLHGJDXNOfw6-144" parent="1">
          <mxGeometry x="0.0019" relative="1" as="geometry">
            <mxPoint x="-585" y="789" as="sourcePoint" />
            <mxPoint as="offset" />
          </mxGeometry>
        </mxCell>
      </root>
    </mxGraphModel>
  </diagram>
</mxfile>
